<svg width="76" height="76" viewBox="0 0 76 76" fill="none" xmlns="http://www.w3.org/2000/svg">
<circle cx="38" cy="38" r="38" fill="#E4E4E4"/>
<g clip-path="url(#clip0)">
<path d="M29 22C25.686 22 23 25.134 23 29C23 32.31 24.97 35.084 27.616 35.812L26.622 52.004C26.6034 52.2609 26.6384 52.5189 26.7246 52.7616C26.8109 53.0043 26.9466 53.2265 27.1231 53.4141C27.2996 53.6016 27.5131 53.7506 27.7501 53.8514C27.9871 53.9523 28.2424 54.0029 28.5 54H29.5C30.6 54 31.444 53.102 31.378 52.004L30.384 35.812C33.03 35.082 35 32.31 35 29C35 25.134 32.314 22 29 22ZM49.166 22L47.5 32H46.25L45.416 22H44.582L43.748 32H42.498L40.832 22H39.998V35C39.998 35.2652 40.1034 35.5196 40.2909 35.7071C40.4784 35.8946 40.7328 36 40.998 36H43.602L42.62 52.004C42.6014 52.2609 42.6364 52.5189 42.7226 52.7616C42.8089 53.0043 42.9446 53.2265 43.1211 53.4141C43.2976 53.6016 43.5111 53.7506 43.7481 53.8514C43.9851 53.9523 44.2404 54.0029 44.498 54H45.498C46.598 54 47.442 53.102 47.376 52.004L46.394 36H48.998C49.2632 36 49.5176 35.8946 49.7051 35.7071C49.8926 35.5196 49.998 35.2652 49.998 35V22H49.164H49.166Z" fill="black"/>
</g>
<defs>
<clipPath id="clip0">
<rect width="32" height="32" fill="white" transform="translate(22 22)"/>
</clipPath>
</defs>
</svg>
