<svg width="76" height="76" viewBox="0 0 76 76" fill="none" xmlns="http://www.w3.org/2000/svg">
<circle cx="38" cy="38" r="38" fill="#E4E4E4"/>
<path d="M49.6159 23.495C49.4741 23.3378 49.3006 23.2123 49.1069 23.127C48.9131 23.0417 48.7035 22.9984 48.4918 23H27.5082C27.2965 22.9984 27.0869 23.0417 26.8931 23.127C26.6994 23.2123 26.5259 23.3378 26.3841 23.495C26.2426 23.6525 26.1361 23.8382 26.0715 24.0399C26.0069 24.2415 25.9858 24.4546 26.0094 24.665L28.7073 48.9949C28.8295 50.1007 29.3567 51.1219 30.1871 51.8615C31.0174 52.6011 32.0921 53.0067 33.2037 52.9999H42.8262C43.9378 53.0067 45.0125 52.6011 45.8429 51.8615C46.6733 51.1219 47.2005 50.1007 47.3227 48.9949L49.9906 24.665C50.0142 24.4546 49.9931 24.2415 49.9285 24.0399C49.8639 23.8382 49.7574 23.6525 49.6159 23.495V23.495ZM44.2951 48.6649C44.2543 49.0335 44.0786 49.3739 43.8018 49.6205C43.525 49.867 43.1668 50.0022 42.7963 49.9999H33.1888C32.8182 50.0022 32.46 49.867 32.1832 49.6205C31.9064 49.3739 31.7307 49.0335 31.6899 48.6649L30.1761 35H45.8239L44.2951 48.6649ZM46.1536 32H29.8464L29.1869 26H46.8131L46.1536 32Z" fill="black"/>
</svg>
