<svg width="143" height="27" viewBox="0 0 143 27" fill="none" xmlns="http://www.w3.org/2000/svg">
<path d="M23.52 3.32L18.576 20H15.48L11.976 7.376L8.256 20L5.184 20.024L0.456 3.32H3.36L6.816 16.904L10.56 3.32H13.632L17.112 16.832L20.592 3.32H23.52ZM24.8646 13.328C24.8646 12 25.1366 10.824 25.6806 9.8C26.2406 8.776 26.9926 7.984 27.9366 7.424C28.8966 6.848 29.9526 6.56 31.1046 6.56C32.1446 6.56 33.0486 6.768 33.8166 7.184C34.6006 7.584 35.2246 8.088 35.6886 8.696V6.776H38.4486V20H35.6886V18.032C35.2246 18.656 34.5926 19.176 33.7926 19.592C32.9926 20.008 32.0806 20.216 31.0566 20.216C29.9206 20.216 28.8806 19.928 27.9366 19.352C26.9926 18.76 26.2406 17.944 25.6806 16.904C25.1366 15.848 24.8646 14.656 24.8646 13.328ZM35.6886 13.376C35.6886 12.464 35.4966 11.672 35.1126 11C34.7446 10.328 34.2566 9.816 33.6486 9.464C33.0406 9.112 32.3846 8.936 31.6806 8.936C30.9766 8.936 30.3206 9.112 29.7126 9.464C29.1046 9.8 28.6086 10.304 28.2246 10.976C27.8566 11.632 27.6726 12.416 27.6726 13.328C27.6726 14.24 27.8566 15.04 28.2246 15.728C28.6086 16.416 29.1046 16.944 29.7126 17.312C30.3366 17.664 30.9926 17.84 31.6806 17.84C32.3846 17.84 33.0406 17.664 33.6486 17.312C34.2566 16.96 34.7446 16.448 35.1126 15.776C35.4966 15.088 35.6886 14.288 35.6886 13.376ZM44.7782 8.696C45.1782 8.024 45.7062 7.504 46.3622 7.136C47.0342 6.752 47.8262 6.56 48.7382 6.56V9.392H48.0422C46.9702 9.392 46.1542 9.664 45.5942 10.208C45.0502 10.752 44.7782 11.696 44.7782 13.04V20H42.0422V6.776H44.7782V8.696ZM54.4451 9.008V16.328C54.4451 16.824 54.5571 17.184 54.7811 17.408C55.0211 17.616 55.4211 17.72 55.9811 17.72H57.6611V20H55.5011C54.2691 20 53.3251 19.712 52.6691 19.136C52.0131 18.56 51.6851 17.624 51.6851 16.328V9.008H50.1251V6.776H51.6851V3.488H54.4451V6.776H57.6611V9.008H54.4451ZM72.3028 13.064C72.3028 13.56 72.2708 14.008 72.2068 14.408H62.1028C62.1828 15.464 62.5748 16.312 63.2788 16.952C63.9828 17.592 64.8468 17.912 65.8708 17.912C67.3428 17.912 68.3828 17.296 68.9908 16.064H71.9428C71.5428 17.28 70.8148 18.28 69.7588 19.064C68.7188 19.832 67.4228 20.216 65.8708 20.216C64.6068 20.216 63.4708 19.936 62.4628 19.376C61.4708 18.8 60.6868 18 60.1108 16.976C59.5508 15.936 59.2708 14.736 59.2708 13.376C59.2708 12.016 59.5428 10.824 60.0868 9.8C60.6468 8.76 61.4228 7.96 62.4148 7.4C63.4228 6.84 64.5748 6.56 65.8708 6.56C67.1188 6.56 68.2308 6.832 69.2068 7.376C70.1828 7.92 70.9428 8.688 71.4868 9.68C72.0308 10.656 72.3028 11.784 72.3028 13.064ZM69.4468 12.2C69.4308 11.192 69.0708 10.384 68.3668 9.776C67.6628 9.168 66.7908 8.864 65.7508 8.864C64.8068 8.864 63.9988 9.168 63.3268 9.776C62.6548 10.368 62.2548 11.176 62.1268 12.2H69.4468ZM80.3233 6.56C81.3473 6.56 82.2513 6.768 83.0353 7.184C83.8353 7.584 84.4593 8.088 84.9073 8.696V6.776H87.6673V20.216C87.6673 21.432 87.4113 22.512 86.8993 23.456C86.3873 24.416 85.6433 25.168 84.6673 25.712C83.7073 26.256 82.5553 26.528 81.2113 26.528C79.4193 26.528 77.9313 26.104 76.7473 25.256C75.5633 24.424 74.8913 23.288 74.7313 21.848H77.4433C77.6513 22.536 78.0913 23.088 78.7633 23.504C79.4513 23.936 80.2673 24.152 81.2113 24.152C82.3153 24.152 83.2033 23.816 83.8753 23.144C84.5633 22.472 84.9073 21.496 84.9073 20.216V18.008C84.4433 18.632 83.8113 19.16 83.0113 19.592C82.2273 20.008 81.3313 20.216 80.3233 20.216C79.1713 20.216 78.1153 19.928 77.1553 19.352C76.2113 18.76 75.4593 17.944 74.8993 16.904C74.3553 15.848 74.0833 14.656 74.0833 13.328C74.0833 12 74.3553 10.824 74.8993 9.8C75.4593 8.776 76.2113 7.984 77.1553 7.424C78.1153 6.848 79.1713 6.56 80.3233 6.56ZM84.9073 13.376C84.9073 12.464 84.7153 11.672 84.3313 11C83.9633 10.328 83.4753 9.816 82.8673 9.464C82.2593 9.112 81.6033 8.936 80.8993 8.936C80.1953 8.936 79.5393 9.112 78.9313 9.464C78.3233 9.8 77.8273 10.304 77.4433 10.976C77.0753 11.632 76.8913 12.416 76.8913 13.328C76.8913 14.24 77.0753 15.04 77.4433 15.728C77.8273 16.416 78.3233 16.944 78.9313 17.312C79.5553 17.664 80.2113 17.84 80.8993 17.84C81.6033 17.84 82.2593 17.664 82.8673 17.312C83.4753 16.96 83.9633 16.448 84.3313 15.776C84.7153 15.088 84.9073 14.288 84.9073 13.376Z" fill="#0C0D36"/>
<path d="M103.279 20.168C102.047 20.168 100.943 19.968 99.9673 19.568C98.9913 19.168 98.2073 18.576 97.6153 17.792C97.0393 17.008 96.7353 16.064 96.7033 14.96H101.071C101.135 15.584 101.351 16.064 101.719 16.4C102.087 16.72 102.567 16.88 103.159 16.88C103.767 16.88 104.247 16.744 104.599 16.472C104.951 16.184 105.127 15.792 105.127 15.296C105.127 14.88 104.983 14.536 104.695 14.264C104.423 13.992 104.079 13.768 103.663 13.592C103.263 13.416 102.687 13.216 101.935 12.992C100.847 12.656 99.9593 12.32 99.2713 11.984C98.5833 11.648 97.9913 11.152 97.4953 10.496C96.9993 9.84 96.7513 8.984 96.7513 7.928C96.7513 6.36 97.3193 5.136 98.4553 4.256C99.5913 3.36 101.071 2.912 102.895 2.912C104.751 2.912 106.247 3.36 107.383 4.256C108.519 5.136 109.127 6.368 109.207 7.952H104.767C104.735 7.408 104.535 6.984 104.167 6.68C103.799 6.36 103.327 6.2 102.751 6.2C102.255 6.2 101.855 6.336 101.551 6.608C101.247 6.864 101.095 7.24 101.095 7.736C101.095 8.28 101.351 8.704 101.863 9.008C102.375 9.312 103.175 9.64 104.263 9.992C105.351 10.36 106.231 10.712 106.903 11.048C107.591 11.384 108.183 11.872 108.679 12.512C109.175 13.152 109.423 13.976 109.423 14.984C109.423 15.944 109.175 16.816 108.679 17.6C108.199 18.384 107.495 19.008 106.567 19.472C105.639 19.936 104.543 20.168 103.279 20.168ZM111.133 13.28C111.133 11.904 111.389 10.696 111.901 9.656C112.429 8.616 113.141 7.816 114.037 7.256C114.933 6.696 115.933 6.416 117.037 6.416C117.981 6.416 118.805 6.608 119.509 6.992C120.229 7.376 120.781 7.88 121.165 8.504V6.608H125.269V20H121.165V18.104C120.765 18.728 120.205 19.232 119.485 19.616C118.781 20 117.957 20.192 117.013 20.192C115.925 20.192 114.933 19.912 114.037 19.352C113.141 18.776 112.429 17.968 111.901 16.928C111.389 15.872 111.133 14.656 111.133 13.28ZM121.165 13.304C121.165 12.28 120.877 11.472 120.301 10.88C119.741 10.288 119.053 9.992 118.237 9.992C117.421 9.992 116.725 10.288 116.149 10.88C115.589 11.456 115.309 12.256 115.309 13.28C115.309 14.304 115.589 15.12 116.149 15.728C116.725 16.32 117.421 16.616 118.237 16.616C119.053 16.616 119.741 16.32 120.301 15.728C120.877 15.136 121.165 14.328 121.165 13.304ZM132.342 8.84C132.822 8.104 133.422 7.528 134.142 7.112C134.862 6.68 135.662 6.464 136.542 6.464V10.808H135.414C134.39 10.808 133.622 11.032 133.11 11.48C132.598 11.912 132.342 12.68 132.342 13.784V20H128.238V6.608H132.342V8.84ZM140.568 5.216C139.848 5.216 139.256 5.008 138.792 4.592C138.344 4.16 138.12 3.632 138.12 3.008C138.12 2.368 138.344 1.84 138.792 1.424C139.256 0.991999 139.848 0.775999 140.568 0.775999C141.272 0.775999 141.848 0.991999 142.296 1.424C142.76 1.84 142.992 2.368 142.992 3.008C142.992 3.632 142.76 4.16 142.296 4.592C141.848 5.008 141.272 5.216 140.568 5.216ZM142.608 6.608V20H138.504V6.608H142.608Z" fill="#29A867"/>
</svg>
