<svg width="64" height="64" viewBox="0 0 64 64" fill="none" xmlns="http://www.w3.org/2000/svg">
<path d="M61.4343 36.1376C65.5207 28.3531 57.2146 22.9547 46.355 20.3072C47.172 18.4501 47.4088 16.0192 45.1048 13.6981C42.1502 10.7275 44.1139 6.4 44.1139 6.4C44.1139 6.4 37.9124 12.1205 41.8281 16.0651C43.2723 17.5189 44.0243 18.7957 44.3838 19.8635C41.3859 19.2455 38.3502 18.8272 35.2969 18.6112C36.2089 16.1323 36.2974 13.0187 33.4239 10.0373C29.49 5.95093 32.1097 0 32.1097 0C32.1097 0 23.8399 7.8656 29.0612 13.2885C30.9673 15.2661 31.9711 17.0069 32.4575 18.4661C29.2212 18.3691 26.1066 18.5109 23.3397 18.8981C23.6693 17.3035 23.3941 15.4699 21.6351 13.6992C18.6805 10.7285 20.6453 6.4 20.6453 6.4C20.6453 6.4 14.4427 12.1205 18.3594 16.0651C19.5861 17.3003 20.305 18.4032 20.7178 19.3643C20.2506 19.4667 19.7973 19.5776 19.361 19.6981C5.87632 18.4363 -0.00524306 21.2224 2.68167 26.688C-2.00736 31.3771 -0.245242 36.7285 5.62245 40.8235C8.68376 53.4325 9.47202 64 32.5289 64C53.1027 64 55.9453 55.584 58.4936 44.8128C66.1394 43.2907 64.5106 39.6256 61.4343 36.1376ZM59.5282 34.8779C56.9672 40.3392 45.8526 44.4501 32.5289 44.4501C19.2064 44.4501 8.09177 40.3392 5.52965 34.8779C5.47525 34.7157 5.42299 34.5472 5.37072 34.3829C6.59098 31.2875 10.5568 28.6016 16.1269 26.8032C14.8181 28.0683 14.5461 29.9573 17.9904 30.6197C18.976 30.8096 21.6821 30.1525 20.4991 26.7947C20.3338 26.3253 20.064 26.0107 19.7322 25.8208C23.5594 24.9451 27.9039 24.4405 32.5289 24.4405C33.0473 24.4405 33.5561 24.4587 34.0671 24.4704C31.3983 25.4176 29.2212 28.336 34.6708 29.1968C35.874 29.3867 39.1774 28.7296 37.7332 25.3717C37.607 25.0725 37.4047 24.8114 37.1465 24.6144C42.2526 24.9899 46.8787 25.9733 50.6184 27.3909C47.3299 27.2075 43.6819 29.2341 49.524 32.0875C50.7773 32.6997 54.5853 33.2619 54.0616 29.5541C54.0237 29.2863 53.9291 29.0295 53.7843 28.8011C56.7741 30.3765 58.8594 32.2869 59.6861 34.3829L59.5282 34.8779Z" fill="#29A867"/>
<path d="M25.4259 37.1637C28.8744 37.1637 31.1741 34.0458 32.9757 32.8256C35.493 31.1189 41.8226 30.4533 36.2482 30.3189C30.9608 30.192 24.4328 34.4842 20.0702 34.1888C12.8468 33.6981 20.2451 37.1637 25.4259 37.1637Z" fill="#29A867"/>
<path d="M32.8777 43.534C34.0959 43.7686 37.4441 42.9558 35.9796 38.8033C34.3252 34.1046 24.3103 41.8849 32.8777 43.534Z" fill="#29A867"/>
<path d="M13.9166 33.2566C12.7528 31.6139 11.0654 29.5307 10.3667 30.6155C9.41205 32.0992 9.11126 35.0848 9.80458 35.2171C15.2403 36.2592 14.8595 34.5867 13.9166 33.2566Z" fill="#29A867"/>
<path d="M45.5166 33.9222C46.4969 32.7083 44.5396 29.7867 43.2831 30.2976C41.3161 31.0976 40.1823 30.5558 39.3183 31.7696C37.2948 34.6123 44.1844 35.5702 45.5166 33.9222Z" fill="#29A867"/>
<path d="M44.9041 37.4005C43.494 36.7787 43.8268 38.8619 41.7436 37.1904C40.2524 35.9936 37.0439 39.0123 39.1602 41.0624C41.5153 43.344 42.1425 41.1755 43.1324 41.3579C45.1441 41.728 48.6033 39.0325 44.9041 37.4005Z" fill="#29A867"/>
<path d="M21.4571 38.1131C20.7222 37.3899 19.7366 38.2625 19.1798 39.327C18.6283 39.0561 18.1793 38.9931 18.1793 38.9931C17.7579 37.7921 16.5046 36.9686 16.5046 36.9686C16.5046 36.9686 16.6187 38.2177 16.7841 38.8267C15.3995 38.335 15.3569 35.8603 15.3569 35.8603C15.3569 35.8603 14.4278 36.4161 14.5121 37.3601C12.9878 36.1302 11.6897 36.7051 11.6897 36.7051C11.6897 36.7051 13.6236 37.7931 13.8902 38.527C12.8044 38.6113 12.1708 38.9867 11.8017 39.8603C11.8028 39.8678 13.9478 38.8395 15.535 39.5819C14.9089 40.0939 15.2203 41.3728 15.2203 41.3728C16.6977 39.807 17.8774 39.9745 18.8214 40.255C18.7072 40.7339 18.7147 41.1713 18.9174 41.4369C20.5547 43.5894 26.2581 43.1051 27.7899 41.5136C29.6448 39.5883 24.4907 41.0987 21.4571 38.1131Z" fill="#29A867"/>
<path d="M25.4859 30.0053C25.0006 30.9803 24.9974 31.7163 25.5584 32.4821C25.5659 32.4843 25.7846 30.1163 27.2363 29.1349C27.3547 29.9349 28.6112 30.3232 28.6112 30.3232C27.6064 26.7648 30.5397 26.5792 30.5259 25.3024C28.9707 25.4336 28.0875 26.5643 28.0875 26.5643C26.8405 26.3093 25.4891 26.9611 25.4891 26.9611C25.4891 26.9611 26.6208 27.504 27.2277 27.6757C26.0949 28.6112 23.9488 27.3771 23.9488 27.3771C23.9488 27.3771 23.9488 28.4608 24.8022 28.8715C22.9643 29.5488 22.7915 30.9568 22.7915 30.9568C22.7915 30.9568 24.7179 29.8571 25.4859 30.0053Z" fill="#29A867"/>
<path d="M52.7397 34.8651C53.1813 34.0267 52.537 33.1552 52.537 33.1552C52.537 33.1552 51.5461 35.424 50.0794 35.3462C50.4655 34.847 51.0522 33.7376 51.0522 33.7376C51.0522 33.7376 49.5781 34.0182 48.7269 34.9643C48.7269 34.9643 47.3445 34.5814 46.0176 35.4006C46.7664 36.4352 49.2346 34.8384 50.5434 38.2966C50.5434 38.2966 51.3221 37.2374 50.9413 36.5238C52.6927 36.448 54.2778 38.2208 54.2831 38.2144C54.2767 37.2651 53.8373 36.6763 52.8655 36.1814C53.3946 35.6064 55.5983 35.3451 55.5983 35.3451C55.5983 35.3451 54.6213 34.3158 52.7397 34.8651Z" fill="#29A867"/>
</svg>
