<svg width="25" height="62" viewBox="0 0 25 62" fill="none" xmlns="http://www.w3.org/2000/svg">
<path fill-rule="evenodd" clip-rule="evenodd" d="M25 40.8207C25 34.2907 20.1319 28.8626 14.2063 27.7955V14.7472C16.0131 15.3482 17.8807 15.4984 18.6335 17.3284C19.3146 18.9772 21.0389 19.6822 22.4763 18.9079C23.921 18.1297 24.5304 16.1572 23.8529 14.5045C22.1573 10.3978 18.3252 8.74893 14.2601 8.00156V0H10.7363V7.95918C4.77129 8.92615 0 14.3928 0 20.992C0 27.5798 4.7462 33.0387 10.7363 34.0249V47.1618C8.81488 46.5916 7.03327 46.399 6.24821 44.4843C5.57428 42.8278 3.8536 42.1228 2.4197 42.8971C0.971464 43.6715 0.354889 45.6362 1.02882 47.2928C2.75308 51.492 6.59951 53.1909 10.7937 53.8843V61.6393H14.1562V53.8535C20.0566 52.8057 25 47.3621 25 40.8207ZM5.77861 20.992C5.77861 18.0102 7.92228 15.5061 10.8438 14.701V27.2947C7.92228 26.4818 5.77861 23.9816 5.77861 20.992ZM14.1812 47.0886V34.5527C17.1028 35.4195 19.2357 37.8851 19.2357 40.8207C19.2357 43.7562 17.1028 46.2218 14.1812 47.0886Z" fill="#29A867"/>
</svg>
