<svg width="76" height="62" viewBox="0 0 76 62" fill="none" xmlns="http://www.w3.org/2000/svg">
<path d="M5.42871 27.8324H38.0004V33.3988H5.42871V27.8324Z" fill="#29A867"/>
<path d="M0 13.9162H27.1431V19.4827H0V13.9162Z" fill="#29A867"/>
<path d="M75.7803 29.519L67.6374 10.0364C67.4284 9.5356 67.0806 9.1088 66.6372 8.80895C66.1937 8.5091 65.6741 8.34942 65.1429 8.34972H57V2.78324C57 2.04508 56.7141 1.33715 56.205 0.815192C55.696 0.293234 55.0056 0 54.2857 0H10.8568V5.56648H51.5714V40.5128C50.3346 41.2493 49.2522 42.2295 48.3866 43.3969C47.521 44.5644 46.8894 45.8961 46.5282 47.3151H29.4715C28.8109 44.6914 27.2397 42.4049 25.0526 40.8841C22.8655 39.3633 20.2125 38.7126 17.591 39.0541C14.9695 39.3955 12.5594 40.7056 10.8125 42.7388C9.06558 44.7719 8.10181 47.3886 8.10181 50.0983C8.10181 52.808 9.06558 55.4247 10.8125 57.4578C12.5594 59.491 14.9695 60.8011 17.591 61.1425C20.2125 61.484 22.8655 60.8333 25.0526 59.3125C27.2397 57.7917 28.8109 55.5052 29.4715 52.8815H46.5282C47.1187 55.2702 48.469 57.3888 50.3656 58.9022C52.2623 60.4155 54.5968 61.2372 57 61.2372C59.4032 61.2372 61.7378 60.4155 63.6344 58.9022C65.531 57.3888 66.8814 55.2702 67.4718 52.8815H73.2859C74.0057 52.8815 74.6961 52.5883 75.2052 52.0663C75.7142 51.5444 76.0002 50.8365 76.0002 50.0983V30.6156C76.0003 30.2386 75.9255 29.8655 75.7803 29.519ZM18.9997 55.6648C17.926 55.6648 16.8765 55.3383 15.9837 54.7267C15.091 54.115 14.3952 53.2456 13.9843 52.2285C13.5734 51.2114 13.4659 50.0921 13.6754 49.0123C13.8849 47.9325 14.4019 46.9407 15.1611 46.1622C15.9203 45.3837 16.8876 44.8536 17.9406 44.6388C18.9937 44.424 20.0852 44.5342 21.0771 44.9555C22.0691 45.3769 22.9169 46.0903 23.5134 47.0057C24.1099 47.9211 24.4283 48.9974 24.4283 50.0983C24.4269 51.5742 23.8545 52.9892 22.8367 54.0328C21.819 55.0764 20.439 55.6633 18.9997 55.6648ZM57 13.9162H63.3515L69.171 27.8324H57V13.9162ZM57 55.6648C55.9263 55.6648 54.8768 55.3383 53.984 54.7267C53.0913 54.115 52.3955 53.2456 51.9846 52.2285C51.5738 51.2114 51.4662 50.0921 51.6757 49.0123C51.8852 47.9325 52.4022 46.9407 53.1614 46.1622C53.9206 45.3837 54.8879 44.8536 55.9409 44.6388C56.994 44.424 58.0855 44.5342 59.0775 44.9555C60.0694 45.3769 60.9172 46.0903 61.5137 47.0057C62.1102 47.9211 62.4286 48.9974 62.4286 50.0983C62.4272 51.5742 61.8548 52.9892 60.837 54.0328C59.8193 55.0764 58.4393 55.6633 57 55.6648ZM70.5716 47.3151H67.4718C66.8739 44.931 65.5214 42.8178 63.6263 41.3068C61.7312 39.7957 59.4006 38.9722 57 38.9653V33.3989H70.5716V47.3151Z" fill="#29A867"/>
</svg>
