<svg width="30" height="34" viewBox="0 0 30 34" fill="none" xmlns="http://www.w3.org/2000/svg">
<g clip-path="url(#clip0)">
<path d="M2.14286 30.8123C2.14286 31.6577 2.4815 32.4685 3.0843 33.0662C3.6871 33.664 4.50466 33.9998 5.35714 33.9998H24.6429C25.4953 33.9998 26.3129 33.664 26.9157 33.0662C27.5185 32.4685 27.8571 31.6577 27.8571 30.8123V8.49984H2.14286V30.8123ZM20.3571 13.8123C20.3571 13.5305 20.47 13.2603 20.671 13.061C20.8719 12.8618 21.1444 12.7498 21.4286 12.7498C21.7127 12.7498 21.9853 12.8618 22.1862 13.061C22.3871 13.2603 22.5 13.5305 22.5 13.8123V28.6873C22.5 28.9691 22.3871 29.2394 22.1862 29.4386C21.9853 29.6379 21.7127 29.7498 21.4286 29.7498C21.1444 29.7498 20.8719 29.6379 20.671 29.4386C20.47 29.2394 20.3571 28.9691 20.3571 28.6873V13.8123ZM13.9286 13.8123C13.9286 13.5305 14.0415 13.2603 14.2424 13.061C14.4433 12.8618 14.7158 12.7498 15 12.7498C15.2842 12.7498 15.5567 12.8618 15.7576 13.061C15.9585 13.2603 16.0714 13.5305 16.0714 13.8123V28.6873C16.0714 28.9691 15.9585 29.2394 15.7576 29.4386C15.5567 29.6379 15.2842 29.7498 15 29.7498C14.7158 29.7498 14.4433 29.6379 14.2424 29.4386C14.0415 29.2394 13.9286 28.9691 13.9286 28.6873V13.8123ZM7.5 13.8123C7.5 13.5305 7.61288 13.2603 7.81381 13.061C8.01475 12.8618 8.28727 12.7498 8.57143 12.7498C8.85559 12.7498 9.12811 12.8618 9.32904 13.061C9.52997 13.2603 9.64286 13.5305 9.64286 13.8123V28.6873C9.64286 28.9691 9.52997 29.2394 9.32904 29.4386C9.12811 29.6379 8.85559 29.7498 8.57143 29.7498C8.28727 29.7498 8.01475 29.6379 7.81381 29.4386C7.61288 29.2394 7.5 28.9691 7.5 28.6873V13.8123ZM28.9286 2.12484H20.8929L20.2634 0.883039C20.1301 0.617556 19.9247 0.394238 19.6703 0.238207C19.416 0.0821761 19.1227 -0.000376552 18.8237 -0.000163833H11.1696C10.8712 -0.00130141 10.5785 0.0809434 10.3251 0.237148C10.0716 0.393352 9.86769 0.617198 9.73661 0.883039L9.10714 2.12484H1.07143C0.787268 2.12484 0.514746 2.23678 0.313814 2.43604C0.112882 2.63529 0 2.90554 0 3.18734L0 5.31234C0 5.59413 0.112882 5.86438 0.313814 6.06364C0.514746 6.26289 0.787268 6.37484 1.07143 6.37484H28.9286C29.2127 6.37484 29.4853 6.26289 29.6862 6.06364C29.8871 5.86438 30 5.59413 30 5.31234V3.18734C30 2.90554 29.8871 2.63529 29.6862 2.43604C29.4853 2.23678 29.2127 2.12484 28.9286 2.12484Z" fill="black"/>
</g>
<defs>
<clipPath id="clip0">
<rect width="30" height="34" fill="white"/>
</clipPath>
</defs>
</svg>
